<?xml version="1.0" encoding="UTF-8" standalone="no"?>
<!DOCTYPE svg PUBLIC "-//W3C//DTD SVG 1.1//EN" "http://www.w3.org/Graphics/SVG/1.1/DTD/svg11.dtd">
<svg width="100%" height="100%" viewBox="0 0 238 211" version="1.1" xmlns="http://www.w3.org/2000/svg" xmlns:xlink="http://www.w3.org/1999/xlink" xml:space="preserve" xmlns:serif="http://www.serif.com/" style="fill-rule:evenodd;clip-rule:evenodd;stroke-linejoin:round;stroke-miterlimit:2;">
    <g transform="matrix(1,0,0,1,-1084.3,-273.43)">
        <g transform="matrix(4.16667,0,0,4.16667,0,0)">
            <path d="M281.555,106.682C284.174,106.682 286.297,108.805 286.297,111.426C286.297,114.045 284.174,116.171 281.555,116.171C278.936,116.171 276.811,114.045 276.811,111.426C276.811,108.805 278.936,106.682 281.555,106.682Z" style="fill:rgb(44,45,44);fill-rule:nonzero;"/>
        </g>
        <g transform="matrix(4.16667,0,0,4.16667,0,0)">
            <path d="M302.259,106.682C304.878,106.682 307.003,108.805 307.003,111.426C307.003,114.045 304.878,116.171 302.259,116.171C299.638,116.171 297.515,114.045 297.515,111.426C297.515,108.805 299.638,106.682 302.259,106.682Z" style="fill:rgb(44,45,44);fill-rule:nonzero;"/>
        </g>
        <g transform="matrix(4.16667,0,0,4.16667,0,0)">
            <path d="M314.342,80.678L285.061,80.678C285.061,80.678 283.33,81.071 283.33,82.972C283.33,84.878 285.061,85.431 285.061,85.431L311.313,85.431L309.838,90.422L284.035,90.422C284.035,90.422 282.422,90.788 282.422,92.556C282.422,94.333 284.035,94.85 284.035,94.85L308.532,94.85L307.147,99.519L280.506,99.519L278.737,85.429L278.163,80.678C278.163,80.678 277.648,76.289 277.357,74.478C277.068,72.655 272.516,70.377 262.73,65.765C260.428,64.799 258.504,69.009 262.73,71.212L270.446,74.817C270.446,74.817 272.241,75.86 272.396,77.257C272.55,78.663 275.681,101.874 275.681,101.874C275.681,101.874 275.806,105.105 278.742,105.105L308.186,105.105C310.651,105.105 311.13,102.53 311.13,102.53L316.965,85.201C316.965,85.201 318.696,80.678 314.342,80.678Z" style="fill:rgb(44,45,44);fill-rule:nonzero;"/>
        </g>
    </g>
</svg>
