<?xml version="1.0" encoding="UTF-8" standalone="no"?>
<!DOCTYPE svg PUBLIC "-//W3C//DTD SVG 1.1//EN" "http://www.w3.org/Graphics/SVG/1.1/DTD/svg11.dtd">
<svg width="100%" height="100%" viewBox="0 0 171 228" version="1.1" xmlns="http://www.w3.org/2000/svg" xmlns:xlink="http://www.w3.org/1999/xlink" xml:space="preserve" xmlns:serif="http://www.serif.com/" style="fill-rule:evenodd;clip-rule:evenodd;stroke-linejoin:round;stroke-miterlimit:2;">
    <g transform="matrix(1,0,0,1,-275.896,-1018.16)">
        <g transform="matrix(4.16667,0,0,4.16667,0,0)">
            <path d="M98.564,292.03L93.457,292.03L93.457,268.194L100.268,268.194L98.564,292.03ZM90.052,292.03L83.241,292.03L83.241,268.194L90.052,268.194L90.052,292.03ZM79.836,292.03L74.729,292.03L73.026,268.194L79.836,268.194L79.836,292.03ZM102.821,261.384L70.472,261.384C68.599,261.384 67.206,262.911 67.375,264.775L70.163,295.45C70.334,297.315 72.004,298.841 73.877,298.841L99.416,298.841C101.289,298.841 102.96,297.315 103.13,295.45L105.918,264.775C106.088,262.911 104.694,261.384 102.821,261.384ZM93.457,244.358L79.836,244.358C78.432,244.358 77.124,245.497 76.929,246.889L75.933,254.013C75.738,255.404 76.729,256.542 78.133,256.542L95.16,256.542C96.564,256.542 97.554,255.404 97.36,254.013L96.364,246.889C96.169,245.497 94.861,244.358 93.457,244.358ZM93.048,247.764L93.799,253.137L79.494,253.137L80.245,247.764L93.048,247.764ZM101.97,251.169L71.323,251.169C68.502,251.169 66.215,253.455 66.215,256.276L66.215,257.979L107.078,257.979L107.078,256.276C107.078,253.455 104.792,251.169 101.97,251.169Z" style="fill:rgb(3,4,4);fill-rule:nonzero;"/>
        </g>
    </g>
</svg>
